<svg width="24" height="24" viewBox="0 0 24 24" fill="none" xmlns="http://www.w3.org/2000/svg">
<g id="house-door-fill">
<path id="Vector" d="M9.75 21.7501V16.4926C9.75 16.1251 10.125 15.7501 10.5 15.7501H13.5C13.875 15.7501 14.25 16.1251 14.25 16.5001V21.7501C14.25 21.949 14.329 22.1398 14.4697 22.2805C14.6103 22.4211 14.8011 22.5001 15 22.5001H21C21.1989 22.5001 21.3897 22.4211 21.5303 22.2805C21.671 22.1398 21.75 21.949 21.75 21.7501V11.2501C21.7502 11.1516 21.7309 11.0539 21.6933 10.9628C21.6558 10.8717 21.6006 10.7889 21.531 10.7191L19.5 8.68962V3.75012C19.5 3.55121 19.421 3.36044 19.2803 3.21979C19.1397 3.07914 18.9489 3.00012 18.75 3.00012H17.25C17.0511 3.00012 16.8603 3.07914 16.7197 3.21979C16.579 3.36044 16.5 3.55121 16.5 3.75012V5.68962L12.531 1.71912C12.4613 1.64928 12.3786 1.59386 12.2875 1.55605C12.1963 1.51824 12.0987 1.49878 12 1.49878C11.9014 1.49878 11.8037 1.51824 11.7126 1.55605C11.6214 1.59386 11.5387 1.64928 11.469 1.71912L2.469 10.7191C2.3994 10.7889 2.34423 10.8717 2.30665 10.9628C2.26908 11.0539 2.24983 11.1516 2.25 11.2501V21.7501C2.25 21.949 2.32902 22.1398 2.46967 22.2805C2.61032 22.4211 2.80109 22.5001 3 22.5001H9C9.19891 22.5001 9.38968 22.4211 9.53033 22.2805C9.67098 22.1398 9.75 21.949 9.75 21.7501Z" fill="#111"/>
</g>
</svg>
