<svg width="24" height="23" viewBox="0 0 24 23" fill="none" xmlns="http://www.w3.org/2000/svg">
<g id="bell" clip-path="url(#clip0_33_9723)">
<path id="Vector" d="M12 22.0688C12.7956 22.0688 13.5587 21.7782 14.1213 21.2608C14.6839 20.7435 15 20.0418 15 19.3102H9C9 20.0418 9.31607 20.7435 9.87868 21.2608C10.4413 21.7782 11.2044 22.0688 12 22.0688ZM12 2.64538L10.8045 2.86745C9.44844 3.12152 8.2295 3.79863 7.35398 4.78417C6.47846 5.76971 6.00015 7.00315 6 8.27573C6 9.14193 5.799 11.3061 5.3115 13.4371C5.0715 14.495 4.7475 15.5971 4.317 16.5516H19.683C19.2525 15.5971 18.93 14.4964 18.6885 13.4371C18.201 11.3061 18 9.14193 18 8.27573C17.9995 7.00339 17.521 5.77028 16.6455 4.78502C15.7701 3.79976 14.5513 3.12285 13.1955 2.86883L12 2.644V2.64538ZM21.33 16.5516C21.6645 17.1681 22.0515 17.6564 22.5 17.9309H1.5C1.9485 17.6564 2.3355 17.1681 2.67 16.5516C4.02 14.0688 4.5 9.48952 4.5 8.27573C4.5 4.9378 7.08 2.15159 10.5075 1.51573C10.4866 1.32394 10.5096 1.13024 10.5751 0.947137C10.6405 0.76403 10.747 0.595574 10.8876 0.452634C11.0283 0.309694 11.1999 0.195443 11.3915 0.11725C11.5831 0.0390565 11.7904 -0.00134277 12 -0.00134277C12.2096 -0.00134277 12.4169 0.0390565 12.6085 0.11725C12.8001 0.195443 12.9717 0.309694 13.1124 0.452634C13.253 0.595574 13.3595 0.76403 13.4249 0.947137C13.4904 1.13024 13.5134 1.32394 13.4925 1.51573C15.1879 1.83283 16.7121 2.67898 17.8069 3.9109C18.9016 5.14282 19.4998 6.68479 19.5 8.27573C19.5 9.48952 19.98 14.0688 21.33 16.5516Z" fill="#212529"/>
</g>
<defs>
<clipPath id="clip0_33_9723">
<rect width="24" height="22.069" fill="white"/>
</clipPath>
</defs>
</svg>
