<svg width="16" height="17" viewBox="0 0 16 17" fill="none" xmlns="http://www.w3.org/2000/svg">
<g id="search" clip-path="url(#clip0_36_9516)">
<path id="Vector" d="M11.742 10.844C12.7103 9.52267 13.144 7.88447 12.9563 6.25713C12.7686 4.62979 11.9734 3.13332 10.7298 2.06711C9.48613 1.0009 7.88576 0.443582 6.24885 0.506655C4.61194 0.569728 3.0592 1.24854 1.90128 2.40729C0.743364 3.56603 0.0656633 5.11926 0.00376152 6.75621C-0.0581403 8.39317 0.500322 9.99314 1.56742 11.236C2.63452 12.4789 4.13156 13.273 5.75903 13.4596C7.38651 13.6461 9.02439 13.2112 10.345 12.242H10.344C10.374 12.282 10.406 12.32 10.442 12.357L14.292 16.207C14.4795 16.3946 14.7339 16.5001 14.9992 16.5002C15.2644 16.5003 15.5189 16.395 15.7065 16.2075C15.8942 16.02 15.9996 15.7656 15.9997 15.5003C15.9998 15.2351 15.8945 14.9806 15.707 14.793L11.857 10.943C11.8213 10.9068 11.7828 10.8734 11.742 10.843V10.844ZM12 6.99998C12 7.72225 11.8578 8.43745 11.5814 9.10474C11.3049 9.77203 10.8998 10.3783 10.3891 10.8891C9.87838 11.3998 9.27206 11.8049 8.60477 12.0813C7.93748 12.3577 7.22228 12.5 6.50001 12.5C5.77774 12.5 5.06254 12.3577 4.39525 12.0813C3.72796 11.8049 3.12165 11.3998 2.61093 10.8891C2.1002 10.3783 1.69508 9.77203 1.41868 9.10474C1.14227 8.43745 1.00001 7.72225 1.00001 6.99998C1.00001 5.54129 1.57948 4.14234 2.61093 3.11089C3.64238 2.07944 5.04132 1.49998 6.50001 1.49998C7.9587 1.49998 9.35765 2.07944 10.3891 3.11089C11.4206 4.14234 12 5.54129 12 6.99998Z" fill="#6C757D"/>
</g>
<defs>
<clipPath id="clip0_36_9516">
<rect width="16" height="16" fill="white" transform="translate(0 0.5)"/>
</clipPath>
</defs>
</svg>
