<svg width="32" height="32" viewBox="0 0 32 32" fill="none" xmlns="http://www.w3.org/2000/svg">
<g id="arrow-left-short">
<path id="Vector" fill-rule="evenodd" clip-rule="evenodd" d="M23.9998 16.0003C23.9998 16.2655 23.8945 16.5199 23.7069 16.7074C23.5194 16.8949 23.2651 17.0003 22.9998 17.0003H11.4138L15.7078 21.2923C15.8008 21.3853 15.8746 21.4956 15.9249 21.6171C15.9752 21.7386 16.0011 21.8688 16.0011 22.0003C16.0011 22.1318 15.9752 22.262 15.9249 22.3835C15.8746 22.5049 15.8008 22.6153 15.7078 22.7083C15.6149 22.8013 15.5045 22.875 15.383 22.9253C15.2615 22.9757 15.1313 23.0015 14.9998 23.0015C14.8683 23.0015 14.7381 22.9757 14.6167 22.9253C14.4952 22.875 14.3848 22.8013 14.2918 22.7083L8.29183 16.7083C8.19871 16.6154 8.12482 16.505 8.07441 16.3836C8.024 16.2621 7.99805 16.1318 7.99805 16.0003C7.99805 15.8688 8.024 15.7385 8.07441 15.617C8.12482 15.4955 8.19871 15.3852 8.29183 15.2923L14.2918 9.29229C14.4796 9.10451 14.7343 8.99902 14.9998 8.99902C15.2654 8.99902 15.5201 9.10451 15.7078 9.29229C15.8956 9.48006 16.0011 9.73474 16.0011 10.0003C16.0011 10.2658 15.8956 10.5205 15.7078 10.7083L11.4138 15.0003H22.9998C23.2651 15.0003 23.5194 15.1056 23.7069 15.2932C23.8945 15.4807 23.9998 15.7351 23.9998 16.0003Z" fill="black"/>
</g>
</svg>
