<svg width="14" height="15" viewBox="0 0 14 15" fill="none" xmlns="http://www.w3.org/2000/svg">
<g id="envelope-fill">
<path id="Vector" fill-rule="evenodd" clip-rule="evenodd" d="M0.04375 3.61063C0.131966 3.22409 0.348823 2.87896 0.658806 2.63177C0.968789 2.38458 1.35352 2.24997 1.75 2.25H12.25C12.6465 2.24997 13.0312 2.38458 13.3412 2.63177C13.6512 2.87896 13.868 3.22409 13.9563 3.61063L7 7.86225L0.04375 3.61063ZM0 4.60987V10.8259L5.07762 7.71263L0 4.60987ZM5.91587 8.22625L0.167125 11.7499C0.309161 12.0494 0.533336 12.3024 0.813559 12.4794C1.09378 12.6565 1.41853 12.7503 1.75 12.75H12.25C12.5814 12.7501 12.906 12.656 13.1861 12.4788C13.4662 12.3016 13.6902 12.0485 13.832 11.749L8.08325 8.22538L7 8.88775L5.91587 8.22538V8.22625ZM8.92237 7.7135L14 10.8259V4.60987L8.92237 7.71263V7.7135Z" fill="#6C757D"/>
</g>
</svg>
