<svg width="14" height="15" viewBox="0 0 14 15" fill="none" xmlns="http://www.w3.org/2000/svg">
<g id="lock-fill" clip-path="url(#clip0_27_90835)">
<path id="Vector" d="M2.1875 8.375C2.1875 7.91087 2.37187 7.46575 2.70006 7.13756C3.02825 6.80937 3.47337 6.625 3.9375 6.625H10.0625C10.5266 6.625 10.9717 6.80937 11.2999 7.13756C11.6281 7.46575 11.8125 7.91087 11.8125 8.375V12.75C11.8125 13.2141 11.6281 13.6592 11.2999 13.9874C10.9717 14.3156 10.5266 14.5 10.0625 14.5H3.9375C3.47337 14.5 3.02825 14.3156 2.70006 13.9874C2.37187 13.6592 2.1875 13.2141 2.1875 12.75V8.375Z" fill="#6C757D"/>
<path id="Vector_2" fill-rule="evenodd" clip-rule="evenodd" d="M3.9375 4C3.9375 3.18777 4.26016 2.40882 4.83449 1.83449C5.40882 1.26016 6.18777 0.9375 7 0.9375C7.81223 0.9375 8.59118 1.26016 9.16551 1.83449C9.73984 2.40882 10.0625 3.18777 10.0625 4V6.625H9.1875V4C9.1875 3.41984 8.95703 2.86344 8.5468 2.4532C8.13656 2.04297 7.58016 1.8125 7 1.8125C6.41984 1.8125 5.86344 2.04297 5.4532 2.4532C5.04297 2.86344 4.8125 3.41984 4.8125 4V6.625H3.9375V4Z" fill="#6C757D"/>
</g>
<defs>
<clipPath id="clip0_27_90835">
<rect width="14" height="14" fill="white" transform="translate(0 0.5)"/>
</clipPath>
</defs>
</svg>
