<svg width="54" height="81" viewBox="0 0 54 81" fill="none" xmlns="http://www.w3.org/2000/svg">
<g id="logo">
<path id="Vector 1" d="M9.23355 17.7415C22.2531 10.4389 33.6453 3.542 39.7482 0.499261C44.834 -2.54348 47.1042 9.00132 42.7997 16.7273C38.4952 24.4532 26.5252 28.8982 26.5252 28.8982C26.5252 28.8982 52.9712 22.8128 53.9884 46.1404C54.2537 52.2259 49.9198 59.3256 46.8683 61.3541C43.8168 63.3826 17.3708 79.1034 14.3194 80.6248C10.7425 82.4081 9.23359 77.582 9.23359 71.4965C9.23359 57.2971 25.5081 52.2259 25.5081 52.2259C11.2679 54.2544 2.1135 49.1832 0.0791923 33.9695C-0.598903 28.8982 3.13068 21.1646 9.23355 17.7415Z" fill="black"/>
</g>
</svg>
